<svg width="24" height="24" viewBox="0 0 24 24" fill="none" xmlns="http://www.w3.org/2000/svg">
<path d="M20.5441 0.00360107V7.28361C20.5441 8.78497 20.0076 10.2611 19.0967 11.4493C18.2687 12.5294 17.2102 13.3755 15.9392 13.8795C14.8159 14.38 13.3542 14.9093 13.293 14.9273C13.293 14.8768 13.293 14.8012 13.293 14.7616C13.293 12.3854 13.293 9.99831 13.3074 7.62924C13.347 5.62022 14.1391 3.91363 15.6116 2.53108C16.3605 1.8182 17.2066 1.39335 18.067 1.01891L20.5441 0.00720147V0.00360107Z" fill="black"/>
<path d="M4.00745 9.40759C4.5475 9.61642 5.10195 9.78563 5.6096 10.0017C6.29007 10.2897 7.00294 10.5345 7.6366 10.9018C9.37917 11.9171 10.5277 13.4544 11.0353 15.4275C11.2046 16.0827 11.2694 16.7488 11.2658 17.4257C11.2622 19.5463 11.2658 21.6634 11.2658 23.784C11.2658 23.8524 11.2658 23.9208 11.2658 24C10.5817 23.9532 9.94443 23.802 9.33237 23.55C7.09295 22.6319 5.50519 21.0513 4.5727 18.819C4.19466 17.9081 4.01105 16.9612 4.01105 15.9819C4.01105 13.8577 4.01105 11.7046 4.01105 9.58041C4.01105 9.53001 4.01105 9.4832 4.01105 9.40399L4.00745 9.40759Z" fill="black"/>
<path d="M11.2658 10.2575C10.9346 10.1387 10.6106 10.0343 10.3226 9.9263C9.47647 9.57346 8.68079 9.27102 7.84911 8.89298C6.14975 7.97128 4.93283 6.55993 4.34597 4.70212C4.10115 3.92803 3.99314 3.06034 4.00034 2.25025C4.00394 1.58418 4.00034 0.918101 4.00034 0.248427C4.00034 0.187221 4.00034 0.0864096 4.00034 0C4.27756 0.108012 4.56559 0.212423 4.81762 0.316835C5.6601 0.662473 6.54219 0.972107 7.35227 1.38255C8.93282 2.17824 10.0453 3.44558 10.7222 5.08376C11.111 6.02347 11.2839 7.00998 11.2658 8.02889V10.2575Z" fill="black"/>
<path d="M20.544 14.0882C20.5332 14.9559 20.5944 16.4357 20.4 17.5626C20.0579 19.118 19.2299 20.5365 18.1174 21.6706C16.9904 22.8192 15.6007 23.5536 14.0238 23.9065C13.7609 23.9641 13.5881 23.9929 13.2965 23.9929C13.2965 23.568 13.2965 23.1792 13.2965 22.7904C13.2965 22.0163 13.2677 21.199 13.4261 20.4321C13.8257 18.4951 14.8626 16.9937 16.4648 15.8596C17.2641 15.3591 17.8401 15.1467 18.5782 14.8479C19.1759 14.6031 19.9319 14.2826 20.5476 14.0918" fill="black"/>
</svg>
